<?xml version="1.0" encoding="utf-8"?>
<!-- Generator: Adobe Illustrator 19.0.0, SVG Export Plug-In . SVG Version: 6.00 Build 0)  -->
<svg version="1.1" id="Layer_1" xmlns="http://www.w3.org/2000/svg" xmlns:xlink="http://www.w3.org/1999/xlink" x="0px" y="0px"
	 viewBox="0 0 96 96" style="enable-background:new 0 0 96 96;" xml:space="preserve">
<g id="XMLID_1_">
	<path fill="white" id="XMLID_6_" d="M69.2,73.2c-0.8,0-1.5-0.3-2.1-0.9c-1.2-1.2-1.2-3,0-4.2c5.4-5.4,8.3-12.5,8.3-20.1c0-7.6-3-14.8-8.3-20.1
		c-1.2-1.2-1.2-3,0-4.2c1.2-1.2,3-1.2,4.2,0c6.5,6.5,10.1,15.1,10.1,24.3c0,9.2-3.6,17.8-10.1,24.3C70.8,72.9,70,73.2,69.2,73.2
		L69.2,73.2z M58.8,67.6c-0.8,0-1.5-0.3-2.1-0.9c-1.2-1.2-1.2-3,0-4.2c8-8,8-21.1,0-29.2c-1.2-1.2-1.2-3,0-4.2s3-1.2,4.2,0
		c5,5,7.8,11.7,7.8,18.8c0,7.1-2.8,13.7-7.8,18.8C60.3,67.3,59.5,67.6,58.8,67.6L58.8,67.6z M48.3,62.1c-0.8,0-1.5-0.3-2.1-0.9
		c-1.2-1.2-1.2-3,0-4.2c5-5,5-13.1,0-18.1c-1.2-1.2-1.2-3,0-4.2c1.2-1.2,3-1.2,4.2,0c7.3,7.3,7.3,19.1,0,26.4
		C49.8,61.8,49.1,62.1,48.3,62.1L48.3,62.1z"/>
	<path fill="white" id="XMLID_7_" d="M40.1,75.5c-0.5,0-1-0.2-1.4-0.6L23.6,59.8h-7c-1.1,0-2-0.9-2-2V38.2c0-1.1,0.9-2,2-2h7l15.1-15.1
		c0.6-0.6,1.4-0.7,2.1-0.4c0.7,0.3,1.2,1,1.2,1.8v51.1c0,0.8-0.5,1.5-1.2,1.8L40.1,75.5z"/>
</g>
</svg>
